<svg width="340" height="44" viewBox="0 0 340 44" fill="none" xmlns="http://www.w3.org/2000/svg">
<rect width="340" height="44" rx="4" fill="url(#paint0_linear)"/>
<path d="M128.059 20.8936C128.302 21.1711 128.697 21.1711 128.944 20.8936L132.725 16.6116C133.822 15.3667 133.76 13.3044 132.53 12.157C131.461 11.1558 129.867 11.3358 128.888 12.4457L128.499 12.8844L128.114 12.4495C127.135 11.3358 125.541 11.1558 124.472 12.157C123.246 13.3044 123.18 15.3667 124.277 16.6116L128.059 20.8936ZM138.127 23.8034C137.718 23.4021 137.079 23.4284 136.648 23.8034L133.44 26.5743C133.048 26.9156 132.558 27.0993 132.051 27.0993H127.944C127.638 27.0993 127.388 26.8293 127.388 26.4993C127.388 26.1694 127.638 25.8994 127.944 25.8994H130.663C131.215 25.8994 131.728 25.4907 131.819 24.902C131.933 24.1521 131.399 23.4996 130.722 23.4996H125.166C124.229 23.4996 123.323 23.8484 122.594 24.4858L120.979 25.8994H119.056C118.75 25.8994 118.5 26.1694 118.5 26.4993V30.099C118.5 30.429 118.75 30.6989 119.056 30.6989H131.444C131.947 30.6989 132.437 30.5152 132.833 30.174L138.082 25.6369C138.61 25.1832 138.652 24.3133 138.127 23.8034Z" fill="#F8F9FA"/>
<path d="M158.03 29C162.461 29 165.089 26.2585 165.089 21.7131C165.089 17.1818 162.461 14.4545 158.129 14.4545H153.101V29H158.03ZM155.736 26.7202V16.7344H157.98C160.934 16.7344 162.476 18.3821 162.476 21.7131C162.476 25.0582 160.934 26.7202 157.902 26.7202H155.736ZM172.238 29.2131C175.434 29.2131 177.465 26.9616 177.465 23.5881C177.465 20.2074 175.434 17.9489 172.238 17.9489C169.042 17.9489 167.01 20.2074 167.01 23.5881C167.01 26.9616 169.042 29.2131 172.238 29.2131ZM172.252 27.1534C170.483 27.1534 169.617 25.5767 169.617 23.581C169.617 21.5852 170.483 19.9872 172.252 19.9872C173.992 19.9872 174.858 21.5852 174.858 23.581C174.858 25.5767 173.992 27.1534 172.252 27.1534ZM182.218 22.608C182.218 21.0312 183.17 20.1222 184.526 20.1222C185.855 20.1222 186.65 20.9957 186.65 22.4517V29H189.221V22.054C189.228 19.4403 187.737 17.9489 185.485 17.9489C183.852 17.9489 182.73 18.7301 182.232 19.9446H182.105V18.0909H179.647V29H182.218V22.608ZM194.974 29.2202C196.686 29.2202 197.708 28.4176 198.177 27.5014H198.262V29H200.734V21.6989C200.734 18.8153 198.383 17.9489 196.302 17.9489C194.008 17.9489 192.247 18.9716 191.678 20.9602L194.079 21.3011C194.335 20.5554 195.059 19.9162 196.316 19.9162C197.509 19.9162 198.163 20.527 198.163 21.5994V21.642C198.163 22.3807 197.389 22.4162 195.464 22.6222C193.347 22.8494 191.323 23.4815 191.323 25.9389C191.323 28.0838 192.893 29.2202 194.974 29.2202ZM195.642 27.331C194.569 27.331 193.802 26.8409 193.802 25.8963C193.802 24.9091 194.661 24.4972 195.812 24.3338C196.487 24.2415 197.836 24.071 198.17 23.8011V25.0866C198.17 26.3011 197.19 27.331 195.642 27.331ZM208.767 18.0909H206.615V15.4773H204.044V18.0909H202.495V20.0795H204.044V26.1449C204.029 28.1974 205.521 29.206 207.453 29.1491C208.184 29.1278 208.688 28.9858 208.965 28.8935L208.532 26.8835C208.39 26.919 208.099 26.983 207.779 26.983C207.133 26.983 206.615 26.7557 206.615 25.7188V20.0795H208.767V18.0909ZM215.629 29.2131C218.172 29.2131 219.919 27.9702 220.373 26.0739L217.973 25.804C217.625 26.7273 216.773 27.2102 215.665 27.2102C214.003 27.2102 212.902 26.1165 212.881 24.2486H220.48V23.4602C220.48 19.6321 218.179 17.9489 215.494 17.9489C212.369 17.9489 210.331 20.2429 210.331 23.6094C210.331 27.0327 212.341 29.2131 215.629 29.2131ZM212.888 22.5156C212.966 21.1236 213.996 19.9517 215.53 19.9517C217.007 19.9517 218.001 21.0312 218.015 22.5156H212.888Z" fill="#F8F9FA"/>
<defs>
<linearGradient id="paint0_linear" x1="-3.07467e-10" y1="22.2292" x2="340" y2="22.1739" gradientUnits="userSpaceOnUse">
<stop offset="0.236043" stop-color="#0077B6"/>
<stop offset="1" stop-color="#32B2ED"/>
</linearGradient>
</defs>
</svg>
