<svg width="30" height="31" viewBox="0 0 30 31" fill="none" xmlns="http://www.w3.org/2000/svg">
<path d="M14.3378 15.1784C14.7023 15.612 15.296 15.612 15.6658 15.1784L21.3374 8.48725C22.9831 6.54202 22.8894 3.3195 21.0457 1.52661C19.4416 -0.0377771 17.0511 0.243461 15.5825 1.97776L14.9992 2.66328L14.4211 1.98362C12.9524 0.243461 10.5619 -0.0377771 8.95784 1.52661C7.1194 3.3195 7.02045 6.54202 8.66619 8.48725L14.3378 15.1784ZM29.4411 19.7251C28.8265 19.0981 27.8683 19.1391 27.2225 19.7251L22.4102 24.055C21.8217 24.5881 21.0874 24.8752 20.327 24.8752H14.1659C13.7076 24.8752 13.3326 24.4534 13.3326 23.9378C13.3326 23.4222 13.7076 23.0003 14.1659 23.0003H18.2438C19.0719 23.0003 19.8427 22.3617 19.9781 21.4418C20.1499 20.27 19.3479 19.2505 18.3323 19.2505H9.99945C8.59328 19.2505 7.23398 19.7954 6.14029 20.7914L3.71854 23.0003H0.833287C0.374979 23.0003 0 23.4222 0 23.9378V29.5625C0 30.0781 0.374979 30.5 0.833287 30.5H19.4156C20.1708 30.5 20.9051 30.2129 21.4988 29.6797L29.3734 22.5902C30.165 21.8812 30.2275 20.5219 29.4411 19.7251Z" fill="#007AFF"/>
</svg>
