<svg width="111" height="31" viewBox="0 0 111 31" fill="none" xmlns="http://www.w3.org/2000/svg">
<path d="M0 27.7328C0.382668 25.0388 0.603437 20.1193 0.662309 12.9744C0.662309 7.84993 0.470976 3.8675 0.0883079 1.02709C2.11939 0.675696 4.68032 0.5 7.7711 0.5C10.332 0.5 12.6428 0.748902 14.7033 1.24671C16.7932 1.74451 18.6918 2.54978 20.3991 3.66252C22.1064 4.74597 23.431 6.28331 24.373 8.27452C25.3149 10.2657 25.7859 12.6523 25.7859 15.4341C25.7859 19.8265 24.4613 23.4429 21.8121 26.2833C19.1628 29.0944 15.395 30.5 10.5086 30.5C6.00494 30.5 2.50206 29.5776 0 27.7328ZM7.32956 5.02416C7.4473 6.75183 7.50617 8.80161 7.50617 11.1735C7.50617 16.8836 7.30012 21.437 6.88802 24.8338C8.507 25.6537 10.023 26.0637 11.4359 26.0637C13.7319 26.0637 15.4833 25.1413 16.6902 23.2965C17.9265 21.4224 18.5447 19.0944 18.5447 16.3126C18.5447 12.5351 17.7499 9.69473 16.1604 7.79136C14.6002 5.85871 12.3484 4.89239 9.40479 4.89239C8.69833 4.89239 8.00659 4.93631 7.32956 5.02416Z" fill="white"/>
<path d="M45.1774 27.601C43.2052 29.5337 40.6149 30.5 37.4063 30.5C34.1978 30.5 31.6075 29.5337 29.6352 27.601C27.6925 25.6684 26.7211 23.0915 26.7211 19.8704C26.7211 16.5029 27.6925 13.8089 29.6352 11.7884C31.6075 9.76794 34.1978 8.75769 37.4063 8.75769C40.6149 8.75769 43.2052 9.76794 45.1774 11.7884C47.1496 13.8089 48.1357 16.5029 48.1357 19.8704C48.1357 23.0915 47.1496 25.6684 45.1774 27.601ZM41.5568 20.7489C41.5568 18.5234 41.1889 16.6786 40.453 15.2145C39.7171 13.7211 38.7015 12.9744 37.4063 12.9744C36.1406 12.9744 35.1398 13.5747 34.4039 14.7753C33.6974 15.9758 33.3442 17.5571 33.3442 19.519C33.3442 21.4517 33.6974 23.0622 34.4039 24.3507C35.1398 25.6098 36.1406 26.2394 37.4063 26.2394C38.731 26.2394 39.7465 25.7416 40.453 24.746C41.1889 23.7211 41.5568 22.3887 41.5568 20.7489Z" fill="white"/>
<path d="M49.3707 9.63616C50.5776 9.25549 51.7256 9.06515 52.8147 9.06515C54.9635 9.06515 56.1851 9.92899 56.4795 11.6567C58.3928 9.75329 60.5711 8.80161 63.0143 8.80161C65.0159 8.80161 66.6643 9.37262 67.9595 10.5146C69.2547 11.6567 69.9023 13.2818 69.9023 15.3902C69.9023 15.4488 69.8728 16.5029 69.814 18.5527C69.7845 20.6025 69.7698 22.1545 69.7698 23.2086C69.7698 25.7269 70.02 27.8646 70.5204 29.6215C69.2547 30.0022 67.9742 30.1925 66.679 30.1925C64.3242 30.1925 63.1467 29.2994 63.1467 27.5132C63.1467 26.459 63.1909 24.5264 63.2792 21.7152C63.3675 18.8748 63.4116 17.1618 63.4116 16.5761C63.4116 15.3755 63.1614 14.4824 62.661 13.8968C62.19 13.2818 61.5719 12.9744 60.8066 12.9744C59.5702 12.9744 58.2015 13.6918 56.7002 15.1266C56.7591 18.8748 56.7885 21.5835 56.7885 23.2526C56.7885 25.8294 56.8621 28.0842 57.0093 30.0168C56.0379 30.1047 55.1696 30.1486 54.4042 30.1486C51.4606 30.1486 49.9888 29.4458 49.9888 28.0403C49.9888 27.9231 50.0183 26.8982 50.0771 24.9656C50.1655 23.0329 50.2096 21.0271 50.2096 18.948C50.2096 14.175 49.93 11.071 49.3707 9.63616Z" fill="white"/>
<path d="M82.8677 8.75769C85.0459 8.75769 86.9298 9.29942 88.5194 10.3829C90.1089 11.4663 90.9037 13.0769 90.9037 15.2145C90.9037 19.5483 87.7835 21.7152 81.543 21.7152C80.9838 21.7152 79.9682 21.6859 78.4964 21.6274C78.4964 23.2965 78.9085 24.5117 79.7327 25.2731C80.5864 26.0344 81.6313 26.4151 82.8677 26.4151C85.0459 26.4151 86.7385 25.7123 87.9454 24.3067C88.6224 24.6288 89.167 25.0681 89.5791 25.6245C90.0206 26.1515 90.2414 26.6933 90.2414 27.2496C90.2414 28.1281 89.7115 28.8309 88.6518 29.358C87.6216 29.8851 86.606 30.2072 85.6052 30.3243C84.6338 30.4414 83.6919 30.5 82.7794 30.5C79.5414 30.5 76.8922 29.6215 74.8316 27.8646C72.7711 26.0783 71.7409 23.3697 71.7409 19.7387C71.7409 17.3375 72.3001 15.2877 73.4187 13.5893C74.5667 11.8616 75.9502 10.6318 77.5692 9.89971C79.2176 9.13836 80.9838 8.75769 82.8677 8.75769ZM82.5144 12.9305C81.4547 12.9305 80.5275 13.4136 79.7327 14.3799C78.938 15.317 78.5259 16.7079 78.4964 18.5527C79.3206 18.4941 79.8946 18.4502 80.2184 18.4209C80.5717 18.3624 81.0574 18.2599 81.6755 18.1135C82.3231 17.9671 82.7794 17.7767 83.0443 17.5425C83.3386 17.2789 83.6036 16.9275 83.8391 16.4883C84.0745 16.0198 84.1923 15.4488 84.1923 14.7753C84.1923 14.3067 84.0304 13.8821 83.7066 13.5015C83.3828 13.1208 82.9854 12.9305 82.5144 12.9305Z" fill="white"/>
<path d="M102.834 8.75769C105.012 8.75769 106.896 9.29942 108.485 10.3829C110.075 11.4663 110.87 13.0769 110.87 15.2145C110.87 19.5483 107.749 21.7152 101.509 21.7152C100.95 21.7152 99.9341 21.6859 98.4623 21.6274C98.4623 23.2965 98.8744 24.5117 99.6986 25.2731C100.552 26.0344 101.597 26.4151 102.834 26.4151C105.012 26.4151 106.704 25.7123 107.911 24.3067C108.588 24.6288 109.133 25.0681 109.545 25.6245C109.986 26.1515 110.207 26.6933 110.207 27.2496C110.207 28.1281 109.677 28.8309 108.618 29.358C107.587 29.8851 106.572 30.2072 105.571 30.3243C104.6 30.4414 103.658 30.5 102.745 30.5C99.5073 30.5 96.858 29.6215 94.7975 27.8646C92.737 26.0783 91.7067 23.3697 91.7067 19.7387C91.7067 17.3375 92.266 15.2877 93.3846 13.5893C94.5326 11.8616 95.9161 10.6318 97.5351 9.89971C99.1835 9.13836 100.95 8.75769 102.834 8.75769ZM102.48 12.9305C101.421 12.9305 100.493 13.4136 99.6986 14.3799C98.9038 15.317 98.4917 16.7079 98.4623 18.5527C99.2865 18.4941 99.8605 18.4502 100.184 18.4209C100.538 18.3624 101.023 18.2599 101.641 18.1135C102.289 17.9671 102.745 17.7767 103.01 17.5425C103.305 17.2789 103.569 16.9275 103.805 16.4883C104.04 16.0198 104.158 15.4488 104.158 14.7753C104.158 14.3067 103.996 13.8821 103.672 13.5015C103.349 13.1208 102.951 12.9305 102.48 12.9305Z" fill="white"/>
<path d="M10.0197 6.74026C9.48966 6.74026 9.05996 7.16772 9.05996 7.695C9.05996 8.22229 9.48966 8.64975 10.0197 8.64975C12.6645 8.64975 14.8162 10.79 14.8162 13.4209C14.8162 13.9482 15.2459 14.3757 15.7759 14.3757C16.3059 14.3757 16.7356 13.9482 16.7356 13.4209C16.7356 9.73718 13.7229 6.74026 10.0197 6.74026Z" fill="white"/>
</svg>
