<svg width="132" height="36" viewBox="0 0 132 36" fill="none" xmlns="http://www.w3.org/2000/svg">
<path d="M0 32.423C0.4556 29.2156 0.718446 23.3585 0.788538 14.8518C0.788538 8.75074 0.560738 4.0093 0.105138 0.627544C2.52332 0.209181 5.57233 0 9.25218 0C12.3012 0 15.0523 0.29634 17.5055 0.88902C19.9938 1.4817 22.2543 2.44044 24.287 3.76526C26.3196 5.05521 27.8967 6.88554 29.0182 9.25626C30.1397 11.627 30.7004 14.4683 30.7004 17.7804C30.7004 23.0099 29.1233 27.3155 25.9692 30.6973C22.815 34.0442 18.3291 35.7176 12.5115 35.7176C7.14941 35.7176 2.97892 34.6194 0 32.423ZM8.72649 5.38641C8.86667 7.44335 8.93676 9.8838 8.93676 12.7077C8.93676 19.5061 8.69144 24.9274 8.20079 28.9716C10.1283 29.9477 11.9332 30.4358 13.6154 30.4358C16.349 30.4358 18.4343 29.3376 19.8712 27.1412C21.3431 24.91 22.0791 22.1383 22.0791 18.8263C22.0791 14.3289 21.1328 10.9471 19.2403 8.68101C17.3829 6.38002 14.7018 5.22952 11.1972 5.22952C10.3561 5.22952 9.53255 5.28182 8.72649 5.38641Z" fill="#48CAE4"/>
<path d="M53.7877 32.2662C51.4396 34.5672 48.3556 35.7176 44.5356 35.7176C40.7155 35.7176 37.6315 34.5672 35.2834 32.2662C32.9703 29.9652 31.8138 26.8972 31.8138 23.0622C31.8138 19.0529 32.9703 15.8455 35.2834 13.4399C37.6315 11.0343 40.7155 9.8315 44.5356 9.8315C48.3556 9.8315 51.4396 11.0343 53.7877 13.4399C56.1358 15.8455 57.3099 19.0529 57.3099 23.0622C57.3099 26.8972 56.1358 29.9652 53.7877 32.2662ZM49.477 24.1081C49.477 21.4585 49.039 19.2621 48.1628 17.5189C47.2867 15.7409 46.0776 14.8518 44.5356 14.8518C43.0286 14.8518 41.837 15.5665 40.9608 16.996C40.1197 18.4254 39.6992 20.308 39.6992 22.6438C39.6992 24.9448 40.1197 26.8623 40.9608 28.3963C41.837 29.8954 43.0286 30.645 44.5356 30.645C46.1126 30.645 47.3217 30.0523 48.1628 28.867C49.039 27.6467 49.477 26.0605 49.477 24.1081Z" fill="#48CAE4"/>
<path d="M58.7802 10.8774C60.217 10.4242 61.5838 10.1976 62.8805 10.1976C65.4389 10.1976 66.8933 11.226 67.2438 13.283C69.5218 11.0169 72.1152 9.8838 75.024 9.8838C77.4072 9.8838 79.3698 10.5636 80.9118 11.9233C82.4538 13.283 83.2248 15.2179 83.2248 17.7281C83.2248 17.7978 83.1898 19.0529 83.1197 21.4933C83.0846 23.9338 83.0671 25.7816 83.0671 27.0366C83.0671 30.0349 83.365 32.5799 83.9608 34.6717C82.4538 35.125 80.9293 35.3516 79.3873 35.3516C76.5836 35.3516 75.1817 34.2882 75.1817 32.1616C75.1817 30.9065 75.2343 28.6055 75.3394 25.2586C75.4446 21.8768 75.4972 19.8373 75.4972 19.1401C75.4972 17.7107 75.1993 16.6473 74.6035 15.95C74.0427 15.2179 73.3068 14.8518 72.3956 14.8518C70.9236 14.8518 69.294 15.706 67.5066 17.4143C67.5767 21.8768 67.6118 25.1017 67.6118 27.0889C67.6118 30.1569 67.6994 32.8414 67.8746 35.1424C66.7181 35.247 65.6842 35.2993 64.773 35.2993C61.2684 35.2993 59.5161 34.4626 59.5161 32.7891C59.5161 32.6497 59.5512 31.4294 59.6213 29.1284C59.7264 26.8275 59.779 24.4393 59.779 21.964C59.779 16.2812 59.446 12.5857 58.7802 10.8774Z" fill="#48CAE4"/>
<path d="M98.6613 9.8315C101.255 9.8315 103.498 10.4765 105.39 11.7664C107.283 13.0564 108.229 14.9739 108.229 17.5189C108.229 22.6787 104.514 25.2586 97.0842 25.2586C96.4183 25.2586 95.2092 25.2237 93.4569 25.154C93.4569 27.1412 93.9476 28.5881 94.9288 29.4945C95.9452 30.401 97.1893 30.8542 98.6613 30.8542C101.255 30.8542 103.27 30.0175 104.707 28.344C105.513 28.7275 106.161 29.2505 106.652 29.9129C107.177 30.5404 107.44 31.1854 107.44 31.8478C107.44 32.8937 106.809 33.7304 105.548 34.358C104.321 34.9855 103.112 35.369 101.921 35.5085C100.764 35.6479 99.6425 35.7176 98.5561 35.7176C94.701 35.7176 91.5469 34.6717 89.0937 32.5799C86.6404 30.4533 85.4138 27.2284 85.4138 22.9053C85.4138 20.0465 86.0797 17.6061 87.4115 15.584C88.7783 13.527 90.4254 12.0628 92.353 11.1912C94.3155 10.2847 96.4183 9.8315 98.6613 9.8315ZM98.2407 14.7996C96.979 14.7996 95.8751 15.3748 94.9288 16.5253C93.9826 17.6409 93.492 19.2969 93.4569 21.4933C94.4382 21.4236 95.1216 21.3713 95.5071 21.3365C95.9277 21.2667 96.5059 21.1447 97.2419 20.9704C98.0129 20.7961 98.5561 20.5695 98.8715 20.2906C99.222 19.9768 99.5374 19.5584 99.8178 19.0355C100.098 18.4776 100.238 17.7978 100.238 16.996C100.238 16.4381 100.046 15.9326 99.6601 15.4794C99.2746 15.0262 98.8015 14.7996 98.2407 14.7996Z" fill="#48CAE4"/>
<path d="M122.432 9.8315C125.026 9.8315 127.269 10.4765 129.161 11.7664C131.054 13.0564 132 14.9739 132 17.5189C132 22.6787 128.285 25.2586 120.855 25.2586C120.189 25.2586 118.98 25.2237 117.228 25.154C117.228 27.1412 117.719 28.5881 118.7 29.4945C119.716 30.401 120.96 30.8542 122.432 30.8542C125.026 30.8542 127.041 30.0175 128.478 28.344C129.284 28.7275 129.932 29.2505 130.423 29.9129C130.949 30.5404 131.211 31.1854 131.211 31.8478C131.211 32.8937 130.581 33.7304 129.319 34.358C128.092 34.9855 126.883 35.369 125.692 35.5085C124.535 35.6479 123.414 35.7176 122.327 35.7176C118.472 35.7176 115.318 34.6717 112.865 32.5799C110.412 30.4533 109.185 27.2284 109.185 22.9053C109.185 20.0465 109.851 17.6061 111.183 15.584C112.549 13.527 114.197 12.0628 116.124 11.1912C118.087 10.2847 120.189 9.8315 122.432 9.8315ZM122.012 14.7996C120.75 14.7996 119.646 15.3748 118.7 16.5253C117.754 17.6409 117.263 19.2969 117.228 21.4933C118.209 21.4236 118.893 21.3713 119.278 21.3365C119.699 21.2667 120.277 21.1447 121.013 20.9704C121.784 20.7961 122.327 20.5695 122.643 20.2906C122.993 19.9768 123.309 19.5584 123.589 19.0355C123.869 18.4776 124.009 17.7978 124.009 16.996C124.009 16.4381 123.817 15.9326 123.431 15.4794C123.046 15.0262 122.573 14.7996 122.012 14.7996Z" fill="#48CAE4"/>
<path d="M11.9293 7.42957C11.2983 7.42957 10.7867 7.9385 10.7867 8.56628C10.7867 9.19406 11.2983 9.703 11.9293 9.703C15.0782 9.703 17.6399 12.2512 17.6399 15.3835C17.6399 16.0113 18.1515 16.5202 18.7826 16.5202C19.4137 16.5202 19.9253 16.0113 19.9253 15.3835C19.9253 10.9977 16.3383 7.42957 11.9293 7.42957Z" fill="#48CAE4"/>
</svg>
