<svg width="30" height="31" viewBox="0 0 30 31" fill="none" xmlns="http://www.w3.org/2000/svg">
<path d="M11.25 17.6875C8.325 17.6875 2.5 19.15 2.5 22.0625V24.25H20V22.0625C20 19.15 14.175 17.6875 11.25 17.6875ZM5.425 21.75C6.475 21.025 9.0125 20.1875 11.25 20.1875C13.4875 20.1875 16.025 21.025 17.075 21.75H5.425ZM11.25 15.5C13.6625 15.5 15.625 13.5375 15.625 11.125C15.625 8.7125 13.6625 6.75 11.25 6.75C8.8375 6.75 6.875 8.7125 6.875 11.125C6.875 13.5375 8.8375 15.5 11.25 15.5ZM11.25 9.25C12.2875 9.25 13.125 10.0875 13.125 11.125C13.125 12.1625 12.2875 13 11.25 13C10.2125 13 9.375 12.1625 9.375 11.125C9.375 10.0875 10.2125 9.25 11.25 9.25ZM20.05 17.7625C21.5 18.8125 22.5 20.2125 22.5 22.0625V24.25H27.5V22.0625C27.5 19.5375 23.125 18.1 20.05 17.7625ZM18.75 15.5C21.1625 15.5 23.125 13.5375 23.125 11.125C23.125 8.7125 21.1625 6.75 18.75 6.75C18.075 6.75 17.45 6.9125 16.875 7.1875C17.6625 8.3 18.125 9.6625 18.125 11.125C18.125 12.5875 17.6625 13.95 16.875 15.0625C17.45 15.3375 18.075 15.5 18.75 15.5Z" fill="#007AFF"/>
</svg>
