<svg width="26" height="25" viewBox="0 0 26 25" fill="none" xmlns="http://www.w3.org/2000/svg">
<path d="M12.0317 12.4171C12.3351 12.7636 12.8293 12.7636 13.1371 12.4171L17.8579 7.07074C19.2278 5.51645 19.1498 2.94156 17.6152 1.50899C16.28 0.258998 14.2902 0.483716 13.0678 1.86947L12.5822 2.41722L12.1011 1.87415C10.8786 0.483716 8.88881 0.258998 7.55363 1.50899C6.02337 2.94156 5.941 5.51645 7.31087 7.07074L12.0317 12.4171ZM24.6032 16.0501C24.0917 15.5491 23.294 15.5819 22.7565 16.0501L18.751 19.5098C18.2611 19.9358 17.6499 20.1652 17.0169 20.1652H11.8886C11.5072 20.1652 11.195 19.8281 11.195 19.4162C11.195 19.0042 11.5072 18.6671 11.8886 18.6671H15.2829C15.9722 18.6671 16.6138 18.1568 16.7265 17.4218C16.8696 16.4855 16.202 15.6709 15.3566 15.6709H8.42063C7.25018 15.6709 6.11874 16.1063 5.20839 16.9021L3.19261 18.6671H0.791013C0.409533 18.6671 0.0974121 19.0042 0.0974121 19.4162V23.9105C0.0974121 24.3225 0.409533 24.6596 0.791013 24.6596H16.2583C16.8869 24.6596 17.4981 24.4302 17.9923 24.0041L24.5469 18.3394C25.2058 17.7729 25.2578 16.6868 24.6032 16.0501Z" fill="#007AFF"/>
</svg>
