<svg width="22" height="20" viewBox="0 0 22 20" fill="none" xmlns="http://www.w3.org/2000/svg">
<path d="M10.5398 17.837L10.5383 17.8356C7.83905 15.388 5.67971 13.4274 4.18317 11.5977C2.69809 9.78204 1.97028 8.21744 1.97028 6.57908C1.97028 3.92611 4.04099 1.85539 6.69396 1.85539C8.20193 1.85539 9.66484 2.56226 10.6156 3.6787L11.376 4.57173L12.1365 3.6787C13.0872 2.56226 14.5501 1.85539 16.0581 1.85539C18.7111 1.85539 20.7818 3.92611 20.7818 6.57908C20.7818 8.21746 20.054 9.7821 18.5687 11.5992C17.0721 13.4302 14.913 15.3931 12.214 17.8458C12.2136 17.8462 12.2133 17.8465 12.2129 17.8468L11.3786 18.6006L10.5398 17.837Z" stroke="#007AFF" stroke-width="1.99768"/>
</svg>
