<svg width="50" height="47" viewBox="0 0 50 47" fill="none" xmlns="http://www.w3.org/2000/svg">
<path d="M6.52174 7.02174V0.5H10.8696V7.02174H17.3913V11.3696H10.8696V17.8913H6.52174V11.3696H0V7.02174H6.52174ZM13.0435 20.0652V13.5435H19.5652V7.02174H34.7826L38.7609 11.3696H45.6522C48.0435 11.3696 50 13.3261 50 15.7174V41.8044C50 44.1957 48.0435 46.1522 45.6522 46.1522H10.8696C8.47826 46.1522 6.52174 44.1957 6.52174 41.8044V20.0652H13.0435ZM28.2609 39.6304C34.2609 39.6304 39.1304 34.7609 39.1304 28.7609C39.1304 22.7609 34.2609 17.8913 28.2609 17.8913C22.2609 17.8913 17.3913 22.7609 17.3913 28.7609C17.3913 34.7609 22.2609 39.6304 28.2609 39.6304ZM21.3043 28.7609C21.3043 32.6087 24.413 35.7174 28.2609 35.7174C32.1087 35.7174 35.2174 32.6087 35.2174 28.7609C35.2174 24.913 32.1087 21.8044 28.2609 21.8044C24.413 21.8044 21.3043 24.913 21.3043 28.7609Z" fill="#6C757D"/>
</svg>
