<svg width="53" height="60" viewBox="0 0 53 60" fill="none" xmlns="http://www.w3.org/2000/svg">
<path d="M41.3353 15.3136L23.8838 8.96177C22.924 8.61242 21.8529 9.1119 21.5035 10.0717C21.1542 11.0316 21.6537 12.1027 22.6135 12.4521L24.3586 13.0872L21.1827 21.813C20.1283 24.7099 16.9387 26.1972 14.0418 25.1428L12.7714 28.6331L23.1899 32.4252L18.7436 44.6412L19.8536 47.0215L22.2339 45.9115L26.6802 33.6955L37.2034 37.5257L38.4738 34.0354C35.5768 32.981 34.0895 29.7913 35.1439 26.8944L38.3198 18.1687L40.0649 18.8039C41.0247 19.1532 42.0959 18.6537 42.4452 17.6939C42.7946 16.7341 42.2951 15.6629 41.3353 15.3136Z" fill="#007AFF"/>
</svg>
