<svg width="54" height="60" viewBox="0 0 54 60" fill="none" xmlns="http://www.w3.org/2000/svg">
<path d="M35.5736 17.6327L32.3977 26.3584C31.6863 28.313 31.6714 30.3629 32.2373 32.229L21.7665 28.4179C23.4471 27.33 24.7185 25.7373 25.4172 23.8177L28.5931 15.092L35.5736 17.6327ZM42.0794 16.0479L24.628 9.69614C23.6682 9.34679 22.597 9.84628 22.2477 10.8061C21.8983 11.7659 22.3978 12.8371 23.3576 13.1864L25.1028 13.8216L21.9269 22.5473C20.8725 25.4443 17.6828 26.9316 14.7859 25.8772L13.5155 29.3675L23.934 33.1595L19.4878 45.3755L20.5977 47.7559L22.9781 46.6459L27.4243 34.4299L37.9475 38.26L39.2179 34.7697C36.321 33.7153 34.8336 30.5257 35.888 27.6288L39.0639 18.9031L40.8091 19.5382C41.7689 19.8876 42.84 19.3881 43.1894 18.4283C43.5387 17.4684 43.0392 16.3973 42.0794 16.0479Z" fill="#007AFF"/>
</svg>
